<?xml version="1.0" standalone="no"?>
<!DOCTYPE svg PUBLIC "-//W3C//DTD SVG 20010904//EN"
 "http://www.w3.org/TR/2001/REC-SVG-20010904/DTD/svg10.dtd">
<svg version="1.0" xmlns="http://www.w3.org/2000/svg"
 width="632.000000pt" height="632.000000pt" viewBox="0 0 632.000000 632.000000"
 preserveAspectRatio="xMidYMid meet">
<metadata>
Created by potrace 1.11, written by Peter Selinger 2001-2013
</metadata>
<g transform="translate(0.000000,632.000000) scale(0.100000,-0.100000)"
fill="#000000" stroke="none">
<path d="M2590 6172 c0 -14 -72 -56 -98 -57 -15 -1 -37 -7 -49 -13 -18 -10
-27 -10 -45 1 -36 21 -94 13 -116 -16 -7 -9 -17 -15 -21 -13 -4 3 -17 -2 -27
-12 -11 -10 -35 -17 -59 -17 -22 0 -53 -5 -70 -11 -16 -6 -37 -10 -45 -10 -8
1 -23 -7 -33 -17 -10 -10 -22 -15 -28 -11 -6 3 -19 -2 -29 -11 -11 -10 -28
-19 -37 -20 -10 -1 -31 -5 -47 -10 -20 -5 -31 -4 -36 5 -6 10 -19 7 -54 -14
-25 -15 -46 -31 -46 -36 0 -6 -7 -10 -15 -10 -8 0 -17 -11 -21 -25 -3 -14 -13
-29 -21 -33 -8 -5 -15 -18 -16 -30 -1 -21 -12 -26 -48 -23 -8 1 -27 -9 -42
-23 -15 -14 -41 -27 -58 -30 -17 -2 -37 -13 -45 -24 -7 -11 -24 -22 -36 -25
-28 -7 -62 -61 -55 -87 3 -10 -1 -27 -8 -37 -7 -10 -11 -29 -10 -43 1 -14 -2
-33 -6 -42 -7 -12 -2 -22 16 -36 14 -11 25 -25 25 -31 0 -22 -36 -74 -87 -128
-18 -18 -35 -45 -38 -60 -2 -15 -19 -41 -37 -58 -29 -26 -33 -36 -32 -80 0
-27 -4 -59 -10 -70 -5 -11 -11 -26 -12 -33 -1 -8 -9 -21 -16 -30 -8 -10 -19
-29 -26 -44 -6 -16 -16 -28 -21 -28 -6 0 -8 -9 -6 -19 2 -11 -3 -25 -11 -31
-7 -7 -11 -16 -8 -21 3 -5 0 -9 -6 -9 -6 0 -9 -4 -5 -9 3 -5 1 -12 -4 -15 -5
-3 -8 -27 -6 -53 1 -27 -3 -60 -11 -75 -8 -15 -14 -30 -15 -33 0 -2 -5 -22
-12 -42 -7 -21 -13 -45 -12 -53 1 -8 -2 -19 -5 -25 -6 -9 -6 -54 3 -223 2 -29
0 -55 -3 -57 -10 -6 -5 -139 6 -160 6 -11 10 -27 9 -35 -1 -8 2 -20 7 -26 4
-6 6 -21 3 -33 -2 -13 3 -37 12 -55 9 -17 18 -51 19 -76 2 -25 5 -54 8 -66 2
-11 1 -27 -4 -34 -11 -18 10 -37 36 -32 15 3 26 -3 33 -17 7 -12 8 -21 4 -21
-4 0 -2 -5 5 -12 6 -6 8 -18 3 -27 -10 -21 -6 -208 6 -246 6 -16 8 -55 6 -85
-6 -70 -5 -172 2 -335 7 -166 8 -175 15 -175 3 0 6 -10 7 -22 1 -45 13 -121
29 -188 3 -14 8 -50 10 -80 7 -72 11 -105 13 -105 3 0 11 -31 15 -60 2 -11 4
-20 5 -20 3 0 11 -36 15 -66 2 -14 8 -34 14 -46 6 -11 9 -23 6 -26 -3 -3 -3
-11 2 -18 7 -12 12 -44 17 -119 1 -19 6 -41 10 -47 8 -13 11 -26 23 -88 3 -16
8 -32 12 -35 4 -3 8 -23 9 -45 2 -43 6 -60 17 -87 4 -9 9 -22 10 -30 1 -7 12
-32 24 -55 12 -24 21 -46 20 -50 -1 -5 4 -18 11 -31 7 -13 14 -33 16 -44 3
-12 8 -24 13 -27 4 -3 9 -16 9 -28 1 -11 17 -37 37 -57 19 -20 38 -47 42 -59
3 -12 13 -30 22 -39 8 -10 11 -18 7 -18 -4 0 1 -8 12 -17 23 -21 55 -78 47
-86 -3 -3 5 -11 18 -18 47 -25 118 -103 118 -131 0 -14 4 -28 8 -30 5 -2 23
-31 40 -65 17 -34 39 -71 49 -83 36 -44 122 -125 133 -126 3 0 17 -8 31 -18
15 -9 39 -19 55 -22 15 -3 32 -8 38 -12 6 -4 50 -7 98 -8 87 -1 88 -1 124 -37
20 -20 41 -34 45 -31 5 3 9 1 9 -3 0 -5 18 -19 40 -33 22 -14 40 -28 40 -32 0
-5 5 -8 11 -8 6 0 28 -13 48 -28 20 -15 65 -45 101 -67 36 -21 74 -47 84 -57
11 -10 25 -18 30 -18 6 0 35 -22 65 -50 30 -28 58 -51 62 -51 16 -2 23 -5 73
-28 27 -12 51 -19 54 -16 3 3 14 -3 24 -12 15 -13 39 -18 99 -19 44 -1 82 3
85 8 3 5 11 5 17 -1 13 -10 125 40 139 62 4 7 8 8 8 3 0 -6 9 0 20 12 11 12
34 29 50 37 17 9 30 20 30 25 0 6 5 10 11 10 5 0 24 12 40 27 60 56 69 63 77
63 5 0 18 10 29 22 27 29 67 63 75 63 9 0 65 55 283 272 249 249 266 267 310
338 21 33 41 62 45 65 12 8 32 51 27 56 -3 3 6 17 19 31 13 14 21 29 18 34 -3
5 6 31 20 59 14 27 23 50 19 50 -3 0 -1 6 4 13 5 6 9 19 8 27 -1 8 2 23 7 32
4 9 11 34 14 55 8 51 21 66 45 52 10 -5 19 -8 20 -7 7 28 5 47 -6 65 -14 21
-24 55 -29 105 -2 15 -22 56 -44 91 -23 36 -38 67 -35 71 14 14 9 92 -8 117
-11 15 -14 30 -9 39 4 7 6 23 3 34 -7 33 -3 76 8 76 13 0 23 42 26 110 1 36 3
70 4 77 3 15 27 25 40 17 10 -6 58 45 59 61 0 12 40 15 40 3 0 -15 31 -8 53
13 12 12 34 25 49 31 23 8 54 54 63 92 2 11 9 32 24 71 5 11 6 29 4 40 -11 55
-9 67 20 112 19 29 33 69 38 102 4 30 11 57 16 60 4 3 8 15 7 26 0 11 4 29 10
40 6 11 9 26 7 33 -1 8 3 20 9 27 7 8 9 19 6 24 -4 6 5 33 19 61 14 27 22 50
19 50 -4 0 1 9 11 20 10 11 19 31 19 44 1 13 7 30 13 38 7 7 11 22 9 33 -1 10
6 27 16 37 11 11 17 26 14 33 -2 7 1 19 9 25 8 6 12 17 10 23 -2 7 -7 29 -10
50 -3 21 -15 57 -27 80 -33 65 -38 76 -38 88 0 7 -11 27 -24 44 -17 22 -22 35
-15 42 8 8 7 13 0 17 -8 5 -8 13 0 27 15 29 19 58 9 64 -5 3 -6 18 -3 33 3 15
5 32 5 37 -5 66 -3 147 4 175 4 19 8 80 9 135 0 55 5 107 10 115 5 8 10 87 10
174 1 140 -2 162 -18 182 -10 13 -16 28 -12 34 3 5 -3 20 -14 32 -12 12 -21
27 -22 32 -2 34 -11 62 -22 71 -7 6 -30 40 -50 77 -21 37 -42 70 -47 73 -6 4
-7 11 -4 17 4 6 2 13 -3 17 -5 3 -24 27 -42 54 -17 26 -36 47 -40 47 -5 0 -15
14 -22 32 -16 39 -282 308 -304 308 -3 0 -17 13 -32 29 -31 32 -124 92 -149
95 -9 1 -19 7 -22 13 -15 24 -105 63 -133 58 -16 -3 -29 -2 -29 2 0 11 -68 64
-84 67 -7 1 -25 9 -39 19 -15 9 -31 17 -36 17 -5 0 -12 8 -16 19 -5 18 -43 32
-96 36 -14 1 -39 11 -56 23 -17 12 -33 19 -36 16 -2 -3 -16 6 -30 20 -16 16
-33 24 -46 21 -12 -2 -21 1 -21 6 0 6 -4 8 -9 4 -5 -3 -17 2 -25 11 -9 8 -16
12 -16 8 0 -4 -8 0 -17 8 -24 21 -95 54 -113 53 -8 0 -21 5 -28 12 -8 7 -17
11 -22 8 -5 -3 -11 -1 -15 4 -3 6 -12 8 -19 5 -8 -3 -17 0 -21 5 -3 6 -11 9
-16 6 -5 -4 -15 -3 -21 2 -7 4 -22 9 -33 10 -11 1 -38 5 -60 7 -22 3 -56 8
-75 11 -19 4 -64 9 -100 11 -36 2 -90 6 -120 9 -64 7 -137 7 -200 2 -25 -3
-55 -1 -67 4 -13 5 -23 5 -23 1z"/>
<path d="M5930 736 c0 -2 8 -10 18 -17 15 -13 16 -12 3 4 -13 16 -21 21 -21
13z"/>
</g>
</svg>
